<svg width="42" height="38" viewBox="0 0 42 38" fill="none" xmlns="http://www.w3.org/2000/svg">
<path opacity="0.4" d="M21 38C32.5979 38 42 29.4935 42 19C42 8.50659 32.5979 0 21 0C9.40201 0 0 8.50659 0 19C0 29.4935 9.40201 38 21 38Z" fill="#292D32"/>
<path d="M21 9.36688C16.653 9.36688 13.125 12.5589 13.125 16.4918C13.125 20.3488 16.464 23.4838 20.895 23.5978H21.084H21.231H21.273C25.515 23.4648 28.854 20.3488 28.875 16.4918C28.875 12.5589 25.347 9.36688 21 9.36688Z" fill="#292D32"/>
<path d="M35.2396 32.965C31.5016 36.081 26.5036 38 21.0016 38C15.4996 38 10.5015 36.081 6.76355 32.965C7.26755 31.236 8.63255 29.659 10.6276 28.443C16.3606 24.985 25.6846 24.985 31.3756 28.443C33.3916 29.659 34.7356 31.236 35.2396 32.965Z" fill="#292D32"/>
</svg>
