<svg width="26" height="27" viewBox="0 0 26 27" fill="none" xmlns="http://www.w3.org/2000/svg">
<path d="M6.07097 16.5191H2.59999C1.16999 16.5191 0 17.6891 0 19.119V25.619C0 26.334 0.584997 26.919 1.29999 26.919H6.07097C6.78597 26.919 7.37096 26.334 7.37096 25.619V17.8191C7.37096 17.1041 6.78597 16.5191 6.07097 16.5191Z" fill="#FFC872"/>
<path d="M14.7292 11.3191H11.2582C9.8282 11.3191 8.6582 12.4891 8.6582 13.9191V25.619C8.6582 26.334 9.2432 26.919 9.9582 26.919H16.0292C16.7442 26.919 17.3292 26.334 17.3292 25.619V13.9191C17.3292 12.4891 16.1722 11.3191 14.7292 11.3191Z" fill="#FFC872"/>
<path d="M23.3999 20.419H19.9289C19.2139 20.419 18.6289 21.004 18.6289 21.719V25.619C18.6289 26.334 19.2139 26.919 19.9289 26.919H24.6999C25.4149 26.919 25.9999 26.334 25.9999 25.619V23.019C25.9999 21.589 24.8299 20.419 23.3999 20.419Z" fill="#FFC872"/>
<path d="M16.9124 4.62473C17.3154 4.22173 17.4714 3.74073 17.3414 3.32473C17.2114 2.90874 16.8084 2.60974 16.2364 2.51874L14.9884 2.31074C14.9364 2.31074 14.8194 2.21974 14.7934 2.16774L14.1044 0.789746C13.5844 -0.263249 12.4014 -0.263249 11.8814 0.789746L11.1924 2.16774C11.1794 2.21974 11.0624 2.31074 11.0104 2.31074L9.76233 2.51874C9.19033 2.60974 8.80033 2.90874 8.65734 3.32473C8.52734 3.74073 8.68334 4.22173 9.08633 4.62473L10.0483 5.59972C10.1003 5.63872 10.1393 5.79472 10.1263 5.84672L9.85333 7.04272C9.64533 7.93971 9.98333 8.34271 10.2043 8.49871C10.4254 8.65471 10.9064 8.86271 11.6994 8.39471L12.8694 7.70571C12.9214 7.66671 13.0904 7.66671 13.1424 7.70571L14.2994 8.39471C14.6634 8.61571 14.9624 8.68071 15.1964 8.68071C15.4694 8.68071 15.6644 8.57671 15.7814 8.49871C16.0024 8.34271 16.3404 7.93971 16.1324 7.04272L15.8594 5.84672C15.8464 5.78172 15.8854 5.63872 15.9374 5.59972L16.9124 4.62473Z" fill="#FFC872"/>
</svg>
