<svg width="36" height="37" viewBox="0 0 36 37" fill="none" xmlns="http://www.w3.org/2000/svg">
<path opacity="0.4" d="M25.5547 0H10.4632C3.90795 0 0 3.90795 0 10.4632V25.5367C0 32.11 3.90795 36.0179 10.4632 36.0179H25.5367C32.092 36.0179 35.9999 32.11 35.9999 25.5547V10.4632C36.0179 3.90795 32.11 0 25.5547 0Z" fill="#292D32"/>
<path d="M24.3105 14.6415C26.1804 14.6415 27.6962 13.1257 27.6962 11.2558C27.6962 9.38596 26.1804 7.87015 24.3105 7.87015C22.4406 7.87015 20.9248 9.38596 20.9248 11.2558C20.9248 13.1257 22.4406 14.6415 24.3105 14.6415Z" fill="#292D32"/>
<path d="M11.7043 14.6415C13.5742 14.6415 15.0899 13.1257 15.0899 11.2558C15.0899 9.38596 13.5742 7.87015 11.7043 7.87015C9.83444 7.87015 8.3186 9.38596 8.3186 11.2558C8.3186 13.1257 9.83444 14.6415 11.7043 14.6415Z" fill="#292D32"/>
<path d="M24.4939 19.6656H11.5274C10.2667 19.6656 9.24023 20.6921 9.24023 21.9708C9.24023 26.8152 13.1842 30.7591 18.0287 30.7591C22.8731 30.7591 26.8171 26.8152 26.8171 21.9708C26.7991 20.7101 25.7545 19.6656 24.4939 19.6656Z" fill="#292D32"/>
</svg>
